<svg width="168" height="24" viewBox="0 0 168 24" fill="none" xmlns="http://www.w3.org/2000/svg">
<path d="M0.438542 23V1.4H4.94521V19.0533H16.0652V23H0.438542ZM18.5119 23V7H22.9385V23H18.5119ZM20.7252 5.42667C20.0497 5.42667 19.4719 5.19556 18.9919 4.73333C18.5297 4.25333 18.2985 3.67555 18.2985 3C18.2985 2.32444 18.5297 1.75555 18.9919 1.29333C19.4719 0.813334 20.0497 0.573334 20.7252 0.573334C21.4008 0.573334 21.9697 0.813334 22.4319 1.29333C22.9119 1.75555 23.1519 2.32444 23.1519 3C23.1519 3.67555 22.9119 4.25333 22.4319 4.73333C21.9697 5.19556 21.4008 5.42667 20.7252 5.42667ZM28.099 23V10.4667H25.2456V7H28.1523V4.14667C28.1523 2.93778 28.4723 2.04889 29.1123 1.48C29.7523 0.893333 30.6501 0.6 31.8056 0.6H36.3923V4.06667H32.4723V7H36.0723V10.4667H32.5256V23H28.099ZM45.9335 23.32C44.2091 23.32 42.7069 22.9822 41.4269 22.3067C40.1469 21.6133 39.1602 20.6444 38.4669 19.4C37.7735 18.1378 37.4269 16.6533 37.4269 14.9467C37.4269 13.24 37.7647 11.7733 38.4402 10.5467C39.1158 9.30222 40.0758 8.35111 41.3202 7.69333C42.5824 7.01778 44.0669 6.68 45.7735 6.68C47.4447 6.68 48.8758 7 50.0669 7.64C51.2758 8.28 52.2002 9.19556 52.8402 10.3867C53.4802 11.5778 53.8002 13 53.8002 14.6533V16.1467H41.6669C41.8447 17.3378 42.298 18.2444 43.0269 18.8667C43.7558 19.4889 44.7158 19.8 45.9069 19.8C46.8491 19.8 47.5958 19.64 48.1469 19.32C48.698 19 49.0891 18.5111 49.3202 17.8533H53.7469C53.3913 19.56 52.5291 20.9022 51.1602 21.88C49.7913 22.84 48.0491 23.32 45.9335 23.32ZM41.7735 13.2133H49.5602C49.418 12.2 49.0269 11.4444 48.3869 10.9467C47.7469 10.4311 46.8847 10.1733 45.8002 10.1733C44.7158 10.1733 43.8269 10.4311 43.1335 10.9467C42.458 11.4622 42.0047 12.2178 41.7735 13.2133ZM57.5785 23V11.3733H55.3919V7H59.8719V9.61333H60.9919C61.6141 8.68889 62.3963 7.97778 63.3385 7.48C64.2808 6.96444 65.4541 6.70667 66.8585 6.70667C69.0808 6.70667 70.7963 7.32 72.0052 8.54667C73.2319 9.75556 73.8452 11.3822 73.8452 13.4267V23H69.4185V14.2533C69.4185 13.08 69.0985 12.1911 68.4585 11.5867C67.8363 10.9644 66.9208 10.6533 65.7119 10.6533C64.503 10.6533 63.5785 10.9644 62.9385 11.5867C62.3163 12.1911 62.0052 13.08 62.0052 14.2533V23H57.5785ZM84.9777 23.32C83.2355 23.32 81.7155 22.9822 80.4177 22.3067C79.1377 21.6133 78.1422 20.6444 77.431 19.4C76.7199 18.1556 76.3644 16.68 76.3644 14.9733C76.3644 13.2844 76.711 11.8178 77.4044 10.5733C78.1155 9.32889 79.1199 8.36889 80.4177 7.69333C81.7155 7.01778 83.2444 6.68 85.0044 6.68C86.7466 6.68 88.2577 7.01778 89.5377 7.69333C90.8177 8.36889 91.8044 9.32889 92.4977 10.5733C93.191 11.8178 93.5377 13.2933 93.5377 15C93.5377 16.6889 93.191 18.1644 92.4977 19.4267C91.8044 20.6711 90.8088 21.6311 89.511 22.3067C88.231 22.9822 86.7199 23.32 84.9777 23.32ZM84.9777 19.48C86.311 19.48 87.3333 19.08 88.0444 18.28C88.7555 17.4622 89.111 16.36 89.111 14.9733C89.111 13.5867 88.7555 12.5022 88.0444 11.72C87.3333 10.92 86.311 10.52 84.9777 10.52C83.6266 10.52 82.5866 10.92 81.8577 11.72C81.1466 12.5022 80.791 13.5867 80.791 14.9733C80.791 16.36 81.1466 17.4622 81.8577 18.28C82.5866 19.08 83.6266 19.48 84.9777 19.48ZM97.3285 23V11.3733H95.1419V7H99.6219V9.61333H100.795C101.364 8.68889 102.102 7.97778 103.009 7.48C103.915 6.96444 105.035 6.70667 106.369 6.70667C107.649 6.70667 108.742 6.93778 109.649 7.4C110.573 7.84444 111.311 8.51111 111.862 9.4H111.969C113.195 7.60444 115.017 6.70667 117.435 6.70667C119.497 6.70667 121.133 7.31111 122.342 8.52C123.551 9.71111 124.155 11.3289 124.155 13.3733V23H119.729V14.2267C119.729 11.8444 118.6 10.6533 116.342 10.6533C114.084 10.6533 112.955 11.8444 112.955 14.2267V23H108.529V14.2267C108.529 11.8444 107.382 10.6533 105.089 10.6533C103.986 10.6533 103.151 10.9467 102.582 11.5333C102.031 12.12 101.755 13.0178 101.755 14.2267V23H97.3285ZM127.637 23V7H132.064V23H127.637ZM129.85 5.42667C129.175 5.42667 128.597 5.19556 128.117 4.73333C127.655 4.25333 127.424 3.67555 127.424 3C127.424 2.32444 127.655 1.75555 128.117 1.29333C128.597 0.813334 129.175 0.573334 129.85 0.573334C130.526 0.573334 131.095 0.813334 131.557 1.29333C132.037 1.75555 132.277 2.32444 132.277 3C132.277 3.67555 132.037 4.25333 131.557 4.73333C131.095 5.19556 130.526 5.42667 129.85 5.42667ZM143.144 23.32C141.473 23.32 140.006 22.9822 138.744 22.3067C137.5 21.6133 136.522 20.6444 135.811 19.4C135.117 18.1556 134.771 16.6889 134.771 15C134.771 13.3111 135.117 11.8444 135.811 10.6C136.504 9.35555 137.482 8.39555 138.744 7.72C140.006 7.02667 141.473 6.68 143.144 6.68C145.26 6.68 147.002 7.21333 148.371 8.28C149.74 9.34667 150.602 10.8133 150.957 12.68H146.504C146.273 11.9867 145.873 11.4533 145.304 11.08C144.735 10.7067 144.015 10.52 143.144 10.52C141.953 10.52 140.993 10.9111 140.264 11.6933C139.553 12.4756 139.197 13.5778 139.197 15C139.197 16.4222 139.562 17.5244 140.291 18.3067C141.02 19.0889 141.971 19.48 143.144 19.48C145.028 19.48 146.175 18.68 146.584 17.08H151.037C150.717 19.0356 149.873 20.5644 148.504 21.6667C147.135 22.7689 145.348 23.32 143.144 23.32ZM160.008 23.32C157.661 23.32 155.803 22.8311 154.434 21.8533C153.083 20.8578 152.354 19.4711 152.248 17.6933H156.514C156.657 18.4578 157.021 19.0267 157.608 19.4C158.212 19.7733 159.074 19.96 160.194 19.96C162.025 19.96 162.941 19.4533 162.941 18.44C162.941 18.0311 162.799 17.7111 162.514 17.48C162.248 17.2311 161.794 17.0444 161.154 16.92L157.581 16.2267C154.381 15.6044 152.781 14.1022 152.781 11.72C152.781 10.1911 153.394 8.97333 154.621 8.06667C155.848 7.14222 157.545 6.68 159.714 6.68C161.865 6.68 163.572 7.15111 164.834 8.09333C166.097 9.03556 166.79 10.3511 166.914 12.04H162.648C162.452 11.2933 162.105 10.7511 161.608 10.4133C161.11 10.0756 160.39 9.90667 159.448 9.90667C158.63 9.90667 158.008 10.0311 157.581 10.28C157.154 10.5111 156.941 10.8667 156.941 11.3467C156.941 11.6844 157.074 11.9689 157.341 12.2C157.608 12.4311 158.017 12.6 158.568 12.7067L162.221 13.4C163.892 13.7378 165.119 14.28 165.901 15.0267C166.683 15.7733 167.074 16.7867 167.074 18.0667C167.074 19.72 166.461 21.0089 165.234 21.9333C164.025 22.8578 162.283 23.32 160.008 23.32Z" fill="#F6F1EB"/>
</svg>
